<svg xmlns="http://www.w3.org/2000/svg" xmlns:xlink="http://www.w3.org/1999/xlink" width="500" zoomAndPan="magnify" viewBox="0 0 375 374.999991" height="500" preserveAspectRatio="xMidYMid meet" version="1.2"><defs><clipPath id="25ae2d589b"><path d="M 59.671875 43 L 313.902344 43 L 313.902344 306 L 59.671875 306 Z M 59.671875 43 "/></clipPath><clipPath id="6876f9a3fb"><path d="M 61.085938 247 L 313.902344 247 L 313.902344 314.046875 L 61.085938 314.046875 Z M 61.085938 247 "/></clipPath><clipPath id="0d2a4070e7"><path d="M 59.671875 306.664062 L 311 306.664062 L 311 326.0625 L 59.671875 326.0625 Z M 59.671875 306.664062 "/></clipPath><clipPath id="838bd27abe"><path d="M 239 275.046875 L 301 275.046875 L 301 335 L 239 335 Z M 239 275.046875 "/></clipPath></defs><g id="2f5042858f"><rect x="0" width="375" y="0" height="374.999991" style="fill:#ffffff;fill-opacity:1;stroke:none;"/><rect x="0" width="375" y="0" height="374.999991" style="fill:#48a6a6;fill-opacity:1;stroke:none;"/><g clip-rule="nonzero" clip-path="url(#25ae2d589b)"><path style=" stroke:none;fill-rule:evenodd;fill:#ffffff;fill-opacity:1;" d="M 313.71875 139.089844 C 313.71875 127.910156 308.128906 117.464844 298.832031 111.25 C 276.738281 96.523438 229.367188 64.976562 205.234375 48.886719 C 194.007812 41.417969 179.382812 41.417969 168.152344 48.886719 C 144.023438 64.976562 96.648438 96.523438 74.558594 111.25 C 65.261719 117.464844 59.671875 127.910156 59.671875 139.089844 C 59.671875 168.179688 59.671875 234.511719 59.671875 271.855469 C 59.671875 280.734375 63.171875 289.25 69.4375 295.515625 C 75.707031 301.785156 84.21875 305.285156 93.097656 305.285156 C 139.375 305.285156 233.960938 305.285156 280.289062 305.285156 C 289.167969 305.285156 297.628906 301.785156 303.949219 295.515625 C 310.21875 289.25 313.71875 280.734375 313.71875 271.855469 C 313.71875 234.511719 313.71875 168.179688 313.71875 139.089844 Z M 300.347656 139.089844 L 300.347656 271.855469 C 300.347656 277.183594 298.257812 282.25 294.496094 286.0625 C 290.683594 289.824219 285.617188 291.914062 280.289062 291.914062 L 93.097656 291.914062 C 87.769531 291.914062 82.703125 289.824219 78.890625 286.0625 C 75.132812 282.25 73.042969 277.183594 73.042969 271.855469 C 73.042969 234.511719 73.042969 168.179688 73.042969 139.089844 C 73.042969 132.402344 76.386719 126.136719 81.972656 122.375 L 175.570312 60.011719 C 182.308594 55.519531 191.082031 55.519531 197.820312 60.011719 C 221.949219 76.101562 269.320312 107.648438 291.414062 122.375 C 297.003906 126.136719 300.347656 132.402344 300.347656 139.089844 "/></g><path style=" stroke:none;fill-rule:nonzero;fill:#ffffff;fill-opacity:1;" d="M 271.726562 297.867188 C 270.917969 297.867188 270.171875 297.347656 269.917969 296.535156 C 265.058594 280.984375 255.570312 257.371094 237.957031 233.128906 C 236.714844 231.71875 221.632812 214.546875 217.375 207.457031 C 212.871094 199.949219 209.203125 192.421875 209.933594 176.277344 C 210.609375 161.433594 207.5625 150.78125 200.617188 143.707031 C 194.03125 137 183.871094 133.792969 170.421875 134.15625 C 165.203125 134.300781 160.242188 136.089844 156.449219 139.191406 C 155.960938 139.59375 155.5 140.003906 155.085938 140.417969 C 155 140.503906 154.898438 140.582031 154.796875 140.652344 C 154.53125 140.832031 148.238281 145.011719 142.484375 147.902344 C 141.558594 148.472656 134.378906 152.683594 125.042969 152.511719 C 124.015625 152.492188 123.011719 152.3125 122.070312 151.976562 C 119.515625 151.070312 117.277344 151.273438 115.761719 152.550781 C 114.121094 153.929688 113.472656 156.398438 113.976562 159.3125 C 114.046875 159.699219 114.039062 160.101562 113.957031 160.480469 C 113.707031 161.585938 112.695312 167.449219 116.882812 173.824219 C 121.828125 181.355469 131.902344 186.644531 146.832031 189.542969 C 147.699219 189.625 152.449219 190.238281 155.425781 193.699219 C 157.21875 195.773438 158.011719 198.414062 157.789062 201.535156 L 157.789062 217.957031 C 157.789062 219.003906 156.9375 219.851562 155.890625 219.851562 C 154.84375 219.851562 153.992188 219.003906 153.992188 217.957031 L 153.992188 201.460938 C 153.992188 201.410156 153.992188 201.363281 153.996094 201.316406 C 154.160156 199.175781 153.6875 197.5 152.550781 196.175781 C 150.386719 193.664062 146.46875 193.320312 146.429688 193.316406 C 146.355469 193.3125 146.277344 193.300781 146.207031 193.285156 C 130.179688 190.191406 119.246094 184.34375 113.703125 175.910156 C 108.863281 168.523438 109.871094 161.535156 110.21875 159.820312 C 109.527344 155.601562 110.652344 151.898438 113.320312 149.648438 C 115.871094 147.5 119.523438 147.042969 123.347656 148.398438 C 123.90625 148.597656 124.5 148.703125 125.121094 148.714844 C 133.734375 148.882812 140.476562 144.683594 140.542969 144.640625 C 140.597656 144.609375 140.652344 144.578125 140.710938 144.546875 C 145.796875 142.003906 151.550781 138.25 152.546875 137.59375 C 153.007812 137.136719 153.515625 136.683594 154.050781 136.25 C 158.488281 132.617188 164.269531 130.523438 170.324219 130.359375 C 184.871094 129.957031 195.972656 133.558594 203.332031 141.046875 C 211.054688 148.914062 214.457031 160.488281 213.730469 176.449219 C 213.042969 191.5625 216.300781 198.285156 220.632812 205.503906 C 224.796875 212.445312 240.707031 230.5 240.867188 230.683594 C 240.902344 230.730469 240.941406 230.773438 240.976562 230.824219 C 258.925781 255.503906 268.59375 279.566406 273.542969 295.402344 C 273.851562 296.40625 273.296875 297.46875 272.296875 297.777344 C 272.105469 297.839844 271.914062 297.867188 271.726562 297.867188 Z M 186.757812 193.824219 C 189.765625 193.671875 195.328125 192.964844 198.738281 189.984375 C 205.121094 184.398438 208.84375 163.339844 204.949219 154.785156 C 204.519531 153.828125 203.390625 153.40625 202.4375 153.84375 C 201.484375 154.277344 201.0625 155.402344 201.496094 156.355469 C 204.679688 163.355469 201.386719 182.625 196.238281 187.128906 C 192.261719 190.609375 181.414062 190.902344 175.914062 188.585938 C 174.089844 187.816406 172.5625 186.804688 171.378906 185.578125 C 166.898438 180.941406 167.640625 173.511719 169.050781 168.097656 C 171.117188 160.175781 175.011719 152.539062 180.320312 146.011719 C 180.980469 145.199219 180.859375 144.003906 180.042969 143.34375 C 179.230469 142.683594 178.03125 142.804688 177.371094 143.621094 C 171.726562 150.566406 167.578125 158.699219 165.378906 167.144531 C 163 176.257812 164.132812 183.546875 168.644531 188.21875 C 170.1875 189.820312 172.136719 191.121094 174.441406 192.089844 C 177.160156 193.230469 180.976562 193.871094 184.917969 193.871094 C 185.53125 193.867188 186.144531 193.855469 186.757812 193.824219 Z M 164.769531 149.585938 C 165.511719 148.84375 165.511719 147.640625 164.769531 146.898438 C 164.03125 146.160156 162.824219 146.160156 162.085938 146.898438 C 160.585938 148.398438 159.066406 149.136719 157.566406 149.085938 C 155.203125 149.011719 153.4375 147.050781 153.390625 147 C 152.707031 146.210938 151.515625 146.121094 150.71875 146.800781 C 149.921875 147.484375 149.832031 148.679688 150.515625 149.476562 C 150.628906 149.609375 153.34375 152.722656 157.394531 152.878906 C 157.503906 152.882812 157.609375 152.886719 157.714844 152.886719 C 160.207031 152.886719 162.574219 151.777344 164.769531 149.585938 Z M 164.769531 149.585938 "/><path style=" stroke:none;fill-rule:nonzero;fill:#fffcf7;fill-opacity:1;" d="M 156.636719 297.867188 C 156.429688 297.867188 156.222656 297.832031 156.011719 297.761719 C 155.019531 297.414062 154.5 296.332031 154.847656 295.339844 C 155.773438 292.683594 156.460938 289.953125 156.894531 287.214844 C 157.234375 285.035156 156.542969 280.132812 155.636719 278.320312 C 153.78125 274.609375 150.675781 272.679688 147.882812 271.28125 C 145.003906 269.84375 138.652344 269.332031 133.667969 269.332031 C 132.132812 269.332031 129.34375 268.570312 127.945312 263.5 C 127.808594 263.007812 127.523438 262.324219 126.9375 261.855469 C 123.925781 259.460938 122.710938 253.3125 122.496094 252.105469 C 121.085938 247.449219 126.496094 244.0625 130.035156 242.742188 C 133.949219 240.699219 135.734375 233.808594 136.089844 231.308594 C 136.097656 231.253906 136.109375 231.199219 136.121094 231.144531 C 137.28125 226.210938 141.179688 222.140625 146.054688 220.777344 C 148.515625 220.085938 150.738281 220.1875 152.890625 220.285156 C 153.640625 220.320312 154.410156 220.355469 155.175781 220.355469 C 157.753906 220.355469 161.082031 219.414062 162.167969 217.667969 C 162.277344 217.496094 170.113281 204.835938 170.113281 204.835938 C 170.789062 203.742188 171.910156 203.019531 173.1875 202.851562 C 174.460938 202.679688 175.730469 203.085938 176.671875 203.960938 C 179.6875 206.78125 184.636719 213.667969 183.855469 228.144531 C 183.792969 229.324219 184.296875 230.464844 185.238281 231.269531 C 205.035156 248.15625 213.113281 278.839844 216.164062 295.625 C 216.351562 296.660156 215.667969 297.644531 214.636719 297.832031 C 213.605469 298.023438 212.617188 297.335938 212.433594 296.304688 C 209.472656 280.015625 201.679688 250.28125 182.777344 234.15625 C 180.929688 232.578125 179.9375 230.316406 180.066406 227.941406 C 180.308594 223.472656 180.207031 212.460938 174.082031 206.742188 C 173.945312 206.613281 173.792969 206.605469 173.691406 206.617188 C 173.589844 206.632812 173.445312 206.679688 173.34375 206.839844 C 173.34375 206.839844 165.507812 219.5 165.398438 219.675781 C 163.199219 223.210938 157.945312 224.152344 155.183594 224.152344 C 154.332031 224.152344 153.515625 224.117188 152.726562 224.082031 C 150.707031 223.992188 148.960938 223.90625 147.085938 224.433594 C 143.546875 225.425781 140.710938 228.371094 139.839844 231.945312 C 139.664062 233.09375 137.957031 243.035156 131.652344 246.1875 C 131.589844 246.21875 131.519531 246.246094 131.453125 246.273438 C 129.527344 246.980469 125.519531 249.167969 126.148438 251.0625 C 126.179688 251.15625 126.207031 251.25 126.21875 251.347656 C 126.628906 253.789062 127.855469 257.742188 129.304688 258.890625 C 130.398438 259.765625 131.195312 261.011719 131.605469 262.5 C 132.011719 263.972656 132.769531 265.542969 133.671875 265.542969 C 137.039062 265.542969 145.332031 265.769531 149.582031 267.894531 C 152.738281 269.476562 156.664062 271.894531 159.035156 276.632812 C 160.414062 279.394531 161.074219 285.089844 160.648438 287.8125 C 160.179688 290.769531 159.4375 293.726562 158.4375 296.597656 C 158.15625 297.375 157.425781 297.867188 156.636719 297.867188 Z M 153.292969 240.449219 C 154.035156 239.710938 154.035156 238.507812 153.292969 237.765625 C 152.554688 237.027344 151.351562 237.027344 150.609375 237.765625 C 149.46875 238.910156 148.316406 239.464844 147.207031 239.441406 C 145.449219 239.386719 144.105469 237.910156 144.0625 237.867188 C 143.378906 237.078125 142.1875 236.988281 141.394531 237.667969 C 140.597656 238.351562 140.503906 239.546875 141.1875 240.34375 C 141.429688 240.625 143.648438 243.105469 147.035156 243.234375 C 147.128906 243.238281 147.21875 243.238281 147.3125 243.238281 C 149.433594 243.242188 151.445312 242.304688 153.292969 240.449219 Z M 153.292969 240.449219 "/><g clip-rule="nonzero" clip-path="url(#6876f9a3fb)"><path style=" stroke:none;fill-rule:nonzero;fill:#ffffff;fill-opacity:1;" d="M 315.105469 249.886719 L 304.527344 248.695312 C 293.953125 247.480469 272.804688 245.101562 251.652344 253.480469 C 230.503906 261.859375 209.351562 281.054688 188.203125 288.742188 C 167.050781 296.429688 145.902344 292.667969 124.75 286.03125 C 103.601562 279.394531 82.449219 269.878906 71.875 265.152344 L 61.300781 260.394531 L 61.300781 314.046875 L 71.875 314.046875 C 82.449219 314.046875 103.601562 314.046875 124.75 314.046875 C 145.902344 314.046875 167.050781 314.046875 188.203125 314.046875 C 209.351562 314.046875 230.503906 314.046875 251.652344 314.046875 C 272.804688 314.046875 293.953125 314.046875 304.527344 314.046875 L 315.105469 314.046875 Z M 315.105469 249.886719 "/></g><g clip-rule="nonzero" clip-path="url(#0d2a4070e7)"><path style=" stroke:none;fill-rule:nonzero;fill:#ffffff;fill-opacity:1;" d="M 75.59375 287.28125 L 295.03125 287.28125 C 296.0625 287.28125 297.085938 287.382812 298.097656 287.582031 C 299.109375 287.785156 300.09375 288.082031 301.046875 288.476562 C 302 288.875 302.90625 289.359375 303.765625 289.929688 C 304.621094 290.503906 305.417969 291.15625 306.148438 291.886719 C 306.875 292.617188 307.527344 293.410156 308.101562 294.269531 C 308.675781 295.125 309.160156 296.03125 309.554688 296.984375 C 309.949219 297.941406 310.246094 298.921875 310.449219 299.933594 C 310.652344 300.945312 310.75 301.96875 310.75 303 L 310.75 310.34375 C 310.75 311.378906 310.652344 312.398438 310.449219 313.414062 C 310.246094 314.425781 309.949219 315.40625 309.554688 316.359375 C 309.160156 317.316406 308.675781 318.222656 308.101562 319.078125 C 307.527344 319.9375 306.875 320.730469 306.148438 321.460938 C 305.417969 322.191406 304.621094 322.84375 303.765625 323.417969 C 302.90625 323.988281 302 324.472656 301.046875 324.867188 C 300.09375 325.265625 299.109375 325.5625 298.097656 325.761719 C 297.085938 325.964844 296.0625 326.066406 295.03125 326.066406 L 75.59375 326.066406 C 74.5625 326.066406 73.539062 325.964844 72.527344 325.761719 C 71.515625 325.5625 70.53125 325.265625 69.578125 324.867188 C 68.625 324.472656 67.71875 323.988281 66.863281 323.417969 C 66.003906 322.84375 65.210938 322.191406 64.480469 321.460938 C 63.75 320.730469 63.097656 319.9375 62.523438 319.078125 C 61.949219 318.222656 61.46875 317.316406 61.070312 316.359375 C 60.675781 315.40625 60.378906 314.425781 60.175781 313.414062 C 59.976562 312.398438 59.875 311.378906 59.875 310.34375 L 59.875 303 C 59.875 301.96875 59.976562 300.945312 60.175781 299.933594 C 60.378906 298.921875 60.675781 297.941406 61.070312 296.984375 C 61.46875 296.03125 61.949219 295.125 62.523438 294.269531 C 63.097656 293.410156 63.75 292.617188 64.480469 291.886719 C 65.210938 291.15625 66.003906 290.503906 66.863281 289.929688 C 67.71875 289.359375 68.625 288.875 69.578125 288.476562 C 70.53125 288.082031 71.515625 287.785156 72.527344 287.582031 C 73.539062 287.382812 74.5625 287.28125 75.59375 287.28125 Z M 75.59375 287.28125 "/></g><g clip-rule="nonzero" clip-path="url(#838bd27abe)"><path style=" stroke:none;fill-rule:nonzero;fill:#48a6a6;fill-opacity:1;" d="M 280.421875 275.105469 C 280.292969 275.105469 280.160156 275.113281 280.027344 275.121094 C 274.773438 276.03125 271.882812 281.589844 271.464844 286.488281 C 270.851562 290.9375 272.8125 296.652344 277.695312 297.648438 C 278.402344 297.785156 279.140625 297.722656 279.832031 297.535156 C 285.710938 295.5625 288.34375 288.597656 287.492188 282.832031 C 287.246094 279.105469 284.4375 275.054688 280.421875 275.105469 Z M 258.140625 275.34375 C 254.871094 275.421875 252.324219 278.738281 251.808594 281.855469 C 250.714844 288.027344 253.523438 295.699219 259.953125 297.648438 C 260.558594 297.78125 261.179688 297.792969 261.789062 297.699219 C 266.136719 296.976562 267.976562 292.101562 267.796875 288.167969 C 267.664062 282.976562 264.96875 276.976562 259.578125 275.519531 C 259.085938 275.386719 258.605469 275.332031 258.140625 275.34375 Z M 294.664062 292.875 C 289.011719 293.214844 285.132812 298.855469 284.582031 304.125 C 283.832031 307.921875 285.859375 313.003906 290.195312 313.308594 C 296.238281 313.234375 300.363281 306.773438 300.535156 301.21875 C 300.914062 297.542969 298.75 293.078125 294.664062 292.875 Z M 245.175781 294.128906 C 242.773438 294.109375 240.40625 295.546875 239.621094 297.992188 C 237.523438 304.535156 241.734375 312.820312 248.660156 314.195312 C 251.554688 314.6875 254.09375 312.46875 254.8125 309.796875 C 256.328125 304.082031 253.210938 297.449219 247.929688 294.855469 C 247.066406 294.371094 246.117188 294.136719 245.175781 294.128906 Z M 270.523438 305.855469 C 265.808594 305.867188 261.019531 308.261719 257.964844 311.824219 C 254.667969 315.972656 251.964844 320.804688 250.910156 326.046875 C 249.625 329.816406 252.535156 334.15625 256.566406 334.183594 C 261.417969 334.320312 265.585938 330.988281 270.410156 330.742188 C 274.5 330.117188 278.164062 332.246094 281.84375 333.640625 C 284.976562 334.976562 289.304688 334.464844 290.90625 331.09375 C 292.164062 327.65625 290.3125 323.992188 288.777344 320.941406 C 285.648438 315.988281 282.296875 310.785156 277.167969 307.691406 C 275.113281 306.417969 272.828125 305.851562 270.523438 305.855469 Z M 270.523438 305.855469 "/></g></g></svg>