<svg xmlns="http://www.w3.org/2000/svg" xmlns:xlink="http://www.w3.org/1999/xlink" width="500" zoomAndPan="magnify" viewBox="0 0 375 374.999991" height="500" preserveAspectRatio="xMidYMid meet" version="1.2"><defs><clipPath id="fa857f5a0a"><path d="M 59.671875 43 L 315 43 L 315 307 L 59.671875 307 Z M 59.671875 43 "/></clipPath><clipPath id="5c14a8e75f"><path d="M 109 130 L 275.355469 130 L 275.355469 299.453125 L 109 299.453125 Z M 109 130 "/></clipPath><clipPath id="cdecbefcd9"><path d="M 122 203 L 218 203 L 218 299.453125 L 122 299.453125 Z M 122 203 "/></clipPath><clipPath id="35692e6919"><path d="M 59.671875 247 L 315.328125 247 L 315.328125 315.601562 L 59.671875 315.601562 Z M 59.671875 247 "/></clipPath><clipPath id="bbf8ffe4a8"><path d="M 59.671875 306.664062 L 315.421875 306.664062 L 315.421875 326.914062 L 59.671875 326.914062 Z M 59.671875 306.664062 "/></clipPath><clipPath id="8be7171c88"><path d="M 239 275.046875 L 301 275.046875 L 301 335 L 239 335 Z M 239 275.046875 "/></clipPath></defs><g id="503065001f"><rect x="0" width="375" y="0" height="374.999991" style="fill:#ffffff;fill-opacity:1;stroke:none;"/><rect x="0" width="375" y="0" height="374.999991" style="fill:#ffffff;fill-opacity:1;stroke:none;"/><g clip-rule="nonzero" clip-path="url(#fa857f5a0a)"><path style=" stroke:none;fill-rule:evenodd;fill:#48a6a6;fill-opacity:1;" d="M 314.992188 139.585938 C 314.992188 128.351562 309.375 117.855469 300.03125 111.609375 C 277.828125 96.804688 230.21875 65.097656 205.96875 48.933594 C 194.679688 41.425781 179.984375 41.425781 168.699219 48.933594 C 144.445312 65.097656 96.835938 96.804688 74.632812 111.609375 C 65.289062 117.855469 59.671875 128.351562 59.671875 139.585938 C 59.671875 168.824219 59.671875 235.488281 59.671875 273.019531 C 59.671875 281.945312 63.1875 290.5 69.488281 296.800781 C 75.785156 303.097656 84.34375 306.617188 93.265625 306.617188 C 139.773438 306.617188 234.835938 306.617188 281.398438 306.617188 C 290.320312 306.617188 298.824219 303.097656 305.175781 296.800781 C 311.476562 290.5 314.992188 281.945312 314.992188 273.019531 C 314.992188 235.488281 314.992188 168.824219 314.992188 139.585938 Z M 301.554688 139.585938 L 301.554688 273.019531 C 301.554688 278.375 299.457031 283.46875 295.675781 287.300781 C 291.84375 291.078125 286.753906 293.179688 281.398438 293.179688 L 93.265625 293.179688 C 87.910156 293.179688 82.820312 291.078125 78.988281 287.300781 C 75.210938 283.46875 73.109375 278.375 73.109375 273.019531 C 73.109375 235.488281 73.109375 168.824219 73.109375 139.585938 C 73.109375 132.867188 76.46875 126.566406 82.085938 122.789062 L 176.152344 60.113281 C 182.921875 55.597656 191.742188 55.597656 198.511719 60.113281 C 222.765625 76.28125 270.375 107.984375 292.578125 122.789062 C 298.195312 126.566406 301.554688 132.867188 301.554688 139.585938 "/></g><g clip-rule="nonzero" clip-path="url(#5c14a8e75f)"><path style=" stroke:none;fill-rule:nonzero;fill:#48a6a6;fill-opacity:1;" d="M 273.132812 299.3125 C 272.316406 299.3125 271.5625 298.789062 271.304688 297.96875 C 266.40625 282.285156 256.835938 258.46875 239.070312 234.015625 C 237.820312 232.597656 222.605469 215.273438 218.3125 208.125 C 213.769531 200.554688 210.070312 192.960938 210.808594 176.675781 C 211.488281 161.703125 208.414062 150.960938 201.410156 143.828125 C 194.765625 137.0625 184.519531 133.824219 170.953125 134.191406 C 165.691406 134.339844 160.683594 136.140625 156.859375 139.269531 C 156.367188 139.675781 155.902344 140.089844 155.484375 140.507812 C 155.398438 140.59375 155.296875 140.675781 155.195312 140.746094 C 154.925781 140.925781 148.578125 145.144531 142.773438 148.058594 C 141.84375 148.632812 134.601562 152.878906 125.183594 152.707031 C 124.148438 152.6875 123.136719 152.507812 122.1875 152.164062 C 119.609375 151.25 117.351562 151.457031 115.824219 152.742188 C 114.167969 154.136719 113.515625 156.625 114.023438 159.566406 C 114.09375 159.957031 114.085938 160.363281 114 160.742188 C 113.753906 161.859375 112.730469 167.773438 116.953125 174.203125 C 121.941406 181.800781 132.105469 187.132812 147.164062 190.054688 C 148.035156 190.140625 152.824219 190.757812 155.832031 194.246094 C 157.636719 196.34375 158.4375 199.003906 158.210938 202.148438 L 158.210938 218.714844 C 158.210938 219.769531 157.355469 220.628906 156.296875 220.628906 C 155.242188 220.628906 154.382812 219.769531 154.382812 218.714844 L 154.382812 202.078125 C 154.382812 202.027344 154.382812 201.976562 154.386719 201.933594 C 154.550781 199.773438 154.078125 198.082031 152.929688 196.746094 C 150.746094 194.214844 146.792969 193.863281 146.757812 193.859375 C 146.679688 193.855469 146.601562 193.84375 146.53125 193.832031 C 130.367188 190.710938 119.339844 184.8125 113.75 176.304688 C 108.867188 168.855469 109.882812 161.804688 110.234375 160.078125 C 109.53125 155.820312 110.671875 152.089844 113.363281 149.820312 C 115.933594 147.652344 119.617188 147.191406 123.472656 148.558594 C 124.035156 148.757812 124.636719 148.863281 125.261719 148.875 C 133.949219 149.046875 140.75 144.808594 140.816406 144.769531 C 140.871094 144.734375 140.929688 144.703125 140.988281 144.671875 C 146.117188 142.105469 151.921875 138.320312 152.925781 137.65625 C 153.390625 137.199219 153.902344 136.742188 154.441406 136.304688 C 158.917969 132.636719 164.746094 130.527344 170.855469 130.363281 C 185.527344 129.957031 196.726562 133.589844 204.144531 141.140625 C 211.9375 149.074219 215.367188 160.753906 214.636719 176.847656 C 213.945312 192.09375 217.230469 198.871094 221.597656 206.15625 C 225.796875 213.15625 241.84375 231.367188 242.003906 231.550781 C 242.042969 231.597656 242.082031 231.644531 242.117188 231.691406 C 260.222656 256.585938 269.96875 280.855469 274.964844 296.828125 C 275.277344 297.839844 274.714844 298.910156 273.707031 299.226562 C 273.511719 299.285156 273.320312 299.3125 273.132812 299.3125 Z M 187.429688 194.375 C 190.464844 194.21875 196.074219 193.507812 199.511719 190.503906 C 205.953125 184.867188 209.707031 163.628906 205.78125 155 C 205.34375 154.035156 204.207031 153.609375 203.246094 154.050781 C 202.285156 154.484375 201.859375 155.621094 202.296875 156.582031 C 205.503906 163.644531 202.1875 183.078125 196.992188 187.621094 C 192.980469 191.132812 182.042969 191.425781 176.496094 189.089844 C 174.652344 188.316406 173.113281 187.292969 171.917969 186.058594 C 167.402344 181.378906 168.148438 173.886719 169.570312 168.425781 C 171.65625 160.4375 175.582031 152.730469 180.9375 146.148438 C 181.601562 145.332031 181.480469 144.125 180.65625 143.457031 C 179.835938 142.792969 178.632812 142.914062 177.964844 143.738281 C 172.269531 150.746094 168.085938 158.945312 165.867188 167.464844 C 163.46875 176.65625 164.609375 184.007812 169.164062 188.722656 C 170.71875 190.335938 172.683594 191.648438 175.007812 192.625 C 177.75 193.777344 181.597656 194.421875 185.578125 194.421875 C 186.191406 194.417969 186.8125 194.40625 187.429688 194.375 Z M 165.253906 149.753906 C 166 149.007812 166 147.792969 165.253906 147.046875 C 164.507812 146.300781 163.292969 146.300781 162.546875 147.046875 C 161.035156 148.558594 159.503906 149.300781 157.984375 149.25 C 155.605469 149.175781 153.824219 147.199219 153.773438 147.144531 C 153.085938 146.347656 151.882812 146.261719 151.082031 146.945312 C 150.277344 147.636719 150.1875 148.84375 150.875 149.644531 C 150.992188 149.78125 153.730469 152.917969 157.8125 153.078125 C 157.925781 153.082031 158.03125 153.085938 158.140625 153.085938 C 160.652344 153.085938 163.039062 151.964844 165.253906 149.753906 Z M 165.253906 149.753906 "/></g><g clip-rule="nonzero" clip-path="url(#cdecbefcd9)"><path style=" stroke:none;fill-rule:nonzero;fill:#48a6a6;fill-opacity:1;" d="M 157.050781 299.3125 C 156.839844 299.3125 156.628906 299.277344 156.421875 299.207031 C 155.421875 298.855469 154.894531 297.765625 155.246094 296.765625 C 156.179688 294.085938 156.871094 291.328125 157.308594 288.570312 C 157.652344 286.371094 156.957031 281.425781 156.042969 279.597656 C 154.167969 275.855469 151.035156 273.910156 148.21875 272.5 C 145.316406 271.050781 138.910156 270.53125 133.882812 270.53125 C 132.332031 270.53125 129.523438 269.765625 128.109375 264.652344 C 127.972656 264.152344 127.683594 263.464844 127.09375 262.992188 C 124.054688 260.578125 122.832031 254.375 122.617188 253.15625 C 121.191406 248.464844 126.652344 245.042969 130.21875 243.714844 C 134.167969 241.652344 135.96875 234.703125 136.328125 232.183594 C 136.335938 232.125 136.347656 232.070312 136.359375 232.015625 C 137.527344 227.039062 141.460938 222.9375 146.378906 221.558594 C 148.859375 220.859375 151.101562 220.964844 153.273438 221.0625 C 154.027344 221.097656 154.804688 221.132812 155.578125 221.132812 C 158.175781 221.132812 161.535156 220.183594 162.628906 218.421875 C 162.738281 218.25 170.644531 205.480469 170.644531 205.480469 C 171.324219 204.378906 172.457031 203.648438 173.742188 203.480469 C 175.027344 203.304688 176.308594 203.714844 177.257812 204.601562 C 180.300781 207.441406 185.292969 214.390625 184.503906 228.988281 C 184.4375 230.179688 184.949219 231.328125 185.898438 232.140625 C 205.863281 249.175781 214.011719 280.125 217.089844 297.054688 C 217.277344 298.09375 216.589844 299.089844 215.550781 299.277344 C 214.511719 299.46875 213.515625 298.777344 213.328125 297.738281 C 210.339844 281.308594 202.480469 251.320312 183.417969 235.054688 C 181.550781 233.460938 180.554688 231.179688 180.683594 228.785156 C 180.925781 224.28125 180.824219 213.171875 174.644531 207.402344 C 174.507812 207.273438 174.355469 207.265625 174.25 207.277344 C 174.148438 207.292969 174.003906 207.34375 173.902344 207.503906 C 173.902344 207.503906 165.996094 220.273438 165.890625 220.449219 C 163.667969 224.015625 158.367188 224.964844 155.585938 224.964844 C 154.722656 224.964844 153.902344 224.925781 153.105469 224.894531 C 151.066406 224.800781 149.304688 224.71875 147.417969 225.25 C 143.847656 226.25 140.988281 229.21875 140.109375 232.824219 C 139.929688 233.984375 138.210938 244.011719 131.851562 247.1875 C 131.785156 247.222656 131.71875 247.25 131.648438 247.277344 C 129.707031 247.988281 125.664062 250.195312 126.300781 252.105469 C 126.328125 252.199219 126.355469 252.296875 126.371094 252.394531 C 126.785156 254.855469 128.023438 258.84375 129.480469 260.003906 C 130.585938 260.882812 131.390625 262.140625 131.804688 263.640625 C 132.214844 265.125 132.976562 266.710938 133.886719 266.710938 C 137.285156 266.710938 145.648438 266.941406 149.933594 269.085938 C 153.121094 270.675781 157.078125 273.117188 159.46875 277.894531 C 160.863281 280.683594 161.527344 286.425781 161.09375 289.175781 C 160.625 292.15625 159.875 295.140625 158.867188 298.035156 C 158.582031 298.820312 157.84375 299.3125 157.050781 299.3125 Z M 153.679688 241.402344 C 154.425781 240.65625 154.425781 239.441406 153.679688 238.695312 C 152.933594 237.949219 151.71875 237.949219 150.972656 238.695312 C 149.820312 239.847656 148.660156 240.40625 147.539062 240.382812 C 145.765625 240.332031 144.410156 238.839844 144.367188 238.796875 C 143.679688 238.003906 142.476562 237.910156 141.675781 238.597656 C 140.871094 239.285156 140.78125 240.492188 141.46875 241.296875 C 141.714844 241.578125 143.949219 244.078125 147.363281 244.210938 C 147.460938 244.214844 147.554688 244.214844 147.644531 244.214844 C 149.785156 244.21875 151.8125 243.269531 153.679688 241.402344 Z M 153.679688 241.402344 "/></g><g clip-rule="nonzero" clip-path="url(#35692e6919)"><path style=" stroke:none;fill-rule:nonzero;fill:#48a6a6;fill-opacity:1;" d="M 315.15625 249.992188 L 304.515625 248.777344 C 293.875 247.53125 272.589844 245.101562 251.304688 253.667969 C 230.019531 262.238281 208.738281 281.863281 187.453125 289.726562 C 166.167969 297.585938 144.882812 293.742188 123.601562 286.953125 C 102.316406 280.167969 81.03125 270.4375 70.390625 265.601562 L 59.746094 260.738281 L 59.746094 315.601562 L 70.390625 315.601562 C 81.03125 315.601562 102.316406 315.601562 123.601562 315.601562 C 144.882812 315.601562 166.167969 315.601562 187.453125 315.601562 C 208.738281 315.601562 230.019531 315.601562 251.304688 315.601562 C 272.589844 315.601562 293.875 315.601562 304.515625 315.601562 L 315.15625 315.601562 Z M 315.15625 249.992188 "/></g><g clip-rule="nonzero" clip-path="url(#bbf8ffe4a8)"><path style=" stroke:none;fill-rule:nonzero;fill:#48a6a6;fill-opacity:1;" d="M 75.738281 287.28125 L 299.261719 287.28125 C 299.785156 287.28125 300.308594 287.308594 300.832031 287.359375 C 301.351562 287.410156 301.871094 287.488281 302.386719 287.589844 C 302.898438 287.691406 303.410156 287.820312 303.910156 287.972656 C 304.410156 288.125 304.90625 288.300781 305.390625 288.5 C 305.875 288.703125 306.347656 288.925781 306.808594 289.171875 C 307.273438 289.417969 307.722656 289.6875 308.15625 289.980469 C 308.59375 290.273438 309.015625 290.582031 309.421875 290.917969 C 309.824219 291.25 310.214844 291.601562 310.585938 291.972656 C 310.957031 292.34375 311.308594 292.730469 311.640625 293.136719 C 311.972656 293.542969 312.285156 293.960938 312.574219 294.398438 C 312.867188 294.835938 313.136719 295.285156 313.382812 295.746094 C 313.632812 296.207031 313.855469 296.683594 314.054688 297.167969 C 314.257812 297.652344 314.433594 298.144531 314.585938 298.644531 C 314.738281 299.148438 314.863281 299.65625 314.96875 300.171875 C 315.070312 300.683594 315.144531 301.203125 315.199219 301.726562 C 315.25 302.246094 315.273438 302.769531 315.273438 303.292969 L 315.273438 310.773438 C 315.273438 311.300781 315.25 311.824219 315.199219 312.34375 C 315.144531 312.867188 315.070312 313.386719 314.96875 313.898438 C 314.863281 314.414062 314.738281 314.921875 314.585938 315.421875 C 314.433594 315.925781 314.257812 316.417969 314.054688 316.902344 C 313.855469 317.386719 313.632812 317.859375 313.382812 318.324219 C 313.136719 318.785156 312.867188 319.234375 312.578125 319.671875 C 312.285156 320.109375 311.972656 320.527344 311.640625 320.933594 C 311.308594 321.339844 310.957031 321.726562 310.585938 322.097656 C 310.214844 322.46875 309.824219 322.820312 309.421875 323.152344 C 309.015625 323.484375 308.59375 323.796875 308.15625 324.089844 C 307.722656 324.382812 307.273438 324.648438 306.808594 324.898438 C 306.347656 325.144531 305.875 325.367188 305.390625 325.570312 C 304.90625 325.769531 304.410156 325.945312 303.910156 326.097656 C 303.410156 326.25 302.898438 326.378906 302.386719 326.480469 C 301.871094 326.582031 301.351562 326.660156 300.832031 326.710938 C 300.308594 326.761719 299.785156 326.789062 299.261719 326.789062 L 75.738281 326.789062 C 75.210938 326.789062 74.6875 326.761719 74.167969 326.710938 C 73.644531 326.660156 73.128906 326.582031 72.613281 326.480469 C 72.097656 326.378906 71.589844 326.25 71.089844 326.097656 C 70.585938 325.945312 70.09375 325.769531 69.609375 325.570312 C 69.125 325.367188 68.652344 325.144531 68.1875 324.898438 C 67.726562 324.648438 67.277344 324.382812 66.839844 324.089844 C 66.40625 323.796875 65.984375 323.484375 65.578125 323.152344 C 65.171875 322.820312 64.785156 322.46875 64.414062 322.097656 C 64.042969 321.726562 63.691406 321.339844 63.359375 320.933594 C 63.027344 320.527344 62.714844 320.109375 62.421875 319.671875 C 62.132812 319.234375 61.863281 318.785156 61.613281 318.324219 C 61.367188 317.859375 61.144531 317.386719 60.941406 316.902344 C 60.742188 316.417969 60.566406 315.925781 60.414062 315.421875 C 60.261719 314.921875 60.132812 314.414062 60.03125 313.898438 C 59.929688 313.386719 59.851562 312.867188 59.800781 312.34375 C 59.75 311.824219 59.722656 311.300781 59.722656 310.773438 L 59.722656 303.292969 C 59.722656 302.769531 59.75 302.246094 59.800781 301.726562 C 59.851562 301.203125 59.929688 300.683594 60.03125 300.171875 C 60.132812 299.65625 60.261719 299.148438 60.414062 298.644531 C 60.566406 298.144531 60.742188 297.652344 60.941406 297.167969 C 61.144531 296.683594 61.367188 296.207031 61.613281 295.746094 C 61.863281 295.285156 62.132812 294.835938 62.421875 294.398438 C 62.714844 293.960938 63.027344 293.542969 63.359375 293.136719 C 63.691406 292.730469 64.042969 292.34375 64.414062 291.972656 C 64.785156 291.601562 65.171875 291.25 65.578125 290.917969 C 65.984375 290.582031 66.40625 290.273438 66.839844 289.980469 C 67.277344 289.6875 67.726562 289.417969 68.1875 289.171875 C 68.652344 288.925781 69.125 288.703125 69.609375 288.5 C 70.09375 288.300781 70.585938 288.125 71.089844 287.972656 C 71.589844 287.820312 72.097656 287.691406 72.613281 287.589844 C 73.128906 287.488281 73.644531 287.410156 74.167969 287.359375 C 74.6875 287.308594 75.210938 287.28125 75.738281 287.28125 Z M 75.738281 287.28125 "/></g><g clip-rule="nonzero" clip-path="url(#8be7171c88)"><path style=" stroke:none;fill-rule:nonzero;fill:#ffffff;fill-opacity:1;" d="M 280.445312 275.105469 C 280.316406 275.105469 280.183594 275.113281 280.050781 275.121094 C 274.792969 276.03125 271.902344 281.589844 271.484375 286.492188 C 270.871094 290.941406 272.832031 296.660156 277.714844 297.65625 C 278.425781 297.792969 279.160156 297.730469 279.855469 297.542969 C 285.734375 295.570312 288.367188 288.601562 287.519531 282.832031 C 287.269531 279.105469 284.460938 275.054688 280.445312 275.105469 Z M 258.152344 275.34375 C 254.882812 275.421875 252.335938 278.738281 251.820312 281.855469 C 250.726562 288.03125 253.535156 295.703125 259.96875 297.65625 C 260.574219 297.789062 261.195312 297.800781 261.804688 297.707031 C 266.152344 296.984375 267.996094 292.109375 267.8125 288.171875 C 267.683594 282.980469 264.984375 276.976562 259.59375 275.519531 C 259.101562 275.386719 258.621094 275.332031 258.152344 275.34375 Z M 294.691406 292.882812 C 289.035156 293.21875 285.15625 298.863281 284.605469 304.132812 C 283.855469 307.933594 285.882812 313.015625 290.21875 313.320312 C 296.265625 313.246094 300.390625 306.785156 300.5625 301.226562 C 300.945312 297.546875 298.777344 293.085938 294.691406 292.882812 Z M 245.1875 294.132812 C 242.78125 294.113281 240.414062 295.554688 239.628906 298 C 237.53125 304.542969 241.742188 312.832031 248.671875 314.207031 C 251.566406 314.699219 254.105469 312.480469 254.824219 309.808594 C 256.34375 304.089844 253.222656 297.453125 247.941406 294.859375 C 247.078125 294.378906 246.128906 294.144531 245.1875 294.136719 Z M 270.542969 305.867188 C 265.824219 305.878906 261.035156 308.269531 257.980469 311.835938 C 254.679688 315.988281 251.976562 320.820312 250.921875 326.0625 C 249.636719 329.835938 252.546875 334.175781 256.582031 334.203125 C 261.433594 334.339844 265.601562 331.007812 270.429688 330.757812 C 274.519531 330.132812 278.1875 332.265625 281.867188 333.65625 C 285 334.996094 289.332031 334.484375 290.929688 331.113281 C 292.1875 327.675781 290.335938 324.007812 288.800781 320.957031 C 285.671875 316.003906 282.320312 310.796875 277.1875 307.703125 C 275.132812 306.425781 272.847656 305.863281 270.542969 305.867188 Z M 270.542969 305.867188 "/></g></g></svg>